<svg width="47" height="48" viewBox="0 0 47 48" fill="none" xmlns="http://www.w3.org/2000/svg">
<path fill-rule="evenodd" clip-rule="evenodd" d="M16.8845 0.500987V0.500987C16.8845 0.0655702 16.3666 -0.161785 16.046 0.132928V0.132928L0.360587 14.5556C0.157314 14.7425 0.144047 15.0588 0.330956 15.2621V15.2621C0.517864 15.4654 0.834168 15.4786 1.03744 15.2917L9.17705 7.8074C11.7412 5.44969 15.8845 7.26853 15.8845 10.7519V22.5802V32.3184C15.7201 34.4143 14.6718 37.7431 12.2041 40.5922C9.81383 43.3518 6.08187 45.6741 0.484019 45.9795C0.208287 45.9945 -0.00867984 46.2249 0.000267056 46.5009V46.5009C0.00921395 46.7769 0.240878 46.9939 0.516624 46.9792C6.40499 46.6635 10.3942 44.2091 12.9599 41.2469C15.5833 38.2181 16.7081 34.6718 16.883 32.3757L16.8845 32.3567V32.3377V26.0919C16.8845 24.4286 18.2329 23.0802 19.8962 23.0802V23.0802C21.5595 23.0802 22.9079 24.4286 22.9079 26.0919V46.5009C22.9079 46.777 23.1318 47.0009 23.4079 47.0009V47.0009C23.684 47.0009 23.9079 46.777 23.9079 46.5009V40.4742C23.9079 36.9754 29.5802 35.5358 31.7866 38.2513V38.2513C35.7844 43.1718 40.8474 47.1604 46.5215 47.0089C46.7976 47.0015 47.0056 46.7615 46.9865 46.486V46.486C46.9674 46.2106 46.7285 46.004 46.4524 46.0102C41.2831 46.1262 36.5068 42.475 32.5627 37.6207C29.714 34.1146 27.3546 30.0469 25.6573 26.5115C24.8798 24.892 26.0974 23.0802 27.8939 23.0802H30.4313C30.4313 23.0802 30.4313 23.0802 30.4313 23.0802V23.0802C30.4313 23.0802 30.4313 23.0802 30.4313 23.0802V23.0802H37.9564V23.0802C38.2325 23.0802 38.4564 22.8563 38.4564 22.5802V22.5802V10.3833V10.3721L38.4559 10.3609C38.2454 5.65174 35.6351 2.94214 32.4961 1.50084C29.3892 0.0742476 25.7559 -0.121589 23.3561 0.128465V0.128465C23.1014 0.155004 22.9079 0.369691 22.9079 0.625772V0.625772V19.0685C22.9079 20.7318 21.5595 22.0802 19.8962 22.0802V22.0802C18.2329 22.0802 16.8845 20.7318 16.8845 19.0685V0.500987ZM27.9079 22.0802C25.6988 22.0802 23.9079 20.2893 23.9079 18.0802V4.79685C23.9079 2.70276 25.5365 0.924145 27.6139 1.1878C29.0989 1.37626 30.6546 1.75567 32.0789 2.40962C34.9408 3.72368 37.2621 6.13375 37.4564 10.3946V18.0802C37.4564 20.2893 35.6655 22.0802 33.4564 22.0802H30.4313H27.9079Z" fill="white"/>
</svg>
